<svg xmlns="http://www.w3.org/2000/svg" xmlns:xlink="http://www.w3.org/1999/xlink" width="500" zoomAndPan="magnify" viewBox="0 0 375 374.999991" height="500" preserveAspectRatio="xMidYMid meet" version="1.0"><defs><g/><clipPath id="aa1f4df00b"><path d="M 65.273438 65.273438 L 309.726562 65.273438 L 309.726562 309.726562 L 65.273438 309.726562 Z M 65.273438 65.273438 " clip-rule="nonzero"/></clipPath><clipPath id="2cc561cbe0"><path d="M 187.5 65.273438 C 119.996094 65.273438 65.273438 119.996094 65.273438 187.5 C 65.273438 255.003906 119.996094 309.726562 187.5 309.726562 C 255.003906 309.726562 309.726562 255.003906 309.726562 187.5 C 309.726562 119.996094 255.003906 65.273438 187.5 65.273438 Z M 187.5 65.273438 " clip-rule="nonzero"/></clipPath><clipPath id="125e4da799"><path d="M 81.796875 81.796875 L 293.199219 81.796875 L 293.199219 293.199219 L 81.796875 293.199219 Z M 81.796875 81.796875 " clip-rule="nonzero"/></clipPath><clipPath id="c7eecce887"><path d="M 187.5 81.796875 C 129.121094 81.796875 81.796875 129.121094 81.796875 187.5 C 81.796875 245.875 129.121094 293.203125 187.5 293.203125 C 245.875 293.203125 293.203125 245.875 293.203125 187.5 C 293.203125 129.121094 245.875 81.796875 187.5 81.796875 Z M 187.5 81.796875 " clip-rule="nonzero"/></clipPath><clipPath id="8edffd786a"><path d="M 37.5 140.722656 L 337.5 140.722656 L 337.5 243.066406 L 37.5 243.066406 Z M 37.5 140.722656 " clip-rule="nonzero"/></clipPath><clipPath id="09e4260f98"><path d="M 175 243.066406 L 200 243.066406 L 200 266 L 175 266 Z M 175 243.066406 " clip-rule="nonzero"/></clipPath><clipPath id="01aaf861d1"><path d="M 202 253 L 221.308594 253 L 221.308594 271.566406 L 202 271.566406 Z M 202 253 " clip-rule="nonzero"/></clipPath><clipPath id="4e8334be27"><path d="M 153.808594 253 L 173 253 L 173 271.566406 L 153.808594 271.566406 Z M 153.808594 253 " clip-rule="nonzero"/></clipPath><clipPath id="428c59fc28"><path d="M 138.273438 107.691406 L 208.773438 107.691406 L 208.773438 163.941406 L 138.273438 163.941406 Z M 138.273438 107.691406 " clip-rule="nonzero"/></clipPath><clipPath id="d03a6f8b49"><path d="M 225 210 L 278.167969 210 L 278.167969 230.511719 L 225 230.511719 Z M 225 210 " clip-rule="nonzero"/></clipPath><clipPath id="5b28e379ca"><path d="M 236 205.761719 L 263 205.761719 L 263 229 L 236 229 Z M 236 205.761719 " clip-rule="nonzero"/></clipPath></defs><rect x="-37.5" width="450" fill="#ffffff" y="-37.499999" height="449.999989" fill-opacity="1"/><rect x="-37.5" width="450" fill="#f5f5f5" y="-37.499999" height="449.999989" fill-opacity="1"/><g clip-path="url(#aa1f4df00b)"><g clip-path="url(#2cc561cbe0)"><path stroke-linecap="butt" transform="matrix(0.75, 0, 0, 0.75, 65.273028, 65.273024)" fill="none" stroke-linejoin="miter" d="M 162.969306 0.000551715 C 72.964092 0.000551715 0.000545715 72.964098 0.000545715 162.969312 C 0.000545715 252.974527 72.964092 325.938073 162.969306 325.938073 C 252.974521 325.938073 325.938067 252.974527 325.938067 162.969312 C 325.938067 72.964098 252.974521 0.000551715 162.969306 0.000551715 Z M 162.969306 0.000551715 " stroke="#292632" stroke-width="24" stroke-opacity="1" stroke-miterlimit="4"/></g></g><g clip-path="url(#125e4da799)"><g clip-path="url(#c7eecce887)"><path stroke-linecap="butt" transform="matrix(0.75, 0, 0, 0.75, 81.794934, 81.79493)" fill="none" stroke-linejoin="miter" d="M 140.940097 0.00259356 C 63.10155 0.00259356 0.00258756 63.101556 0.00258756 140.940103 C 0.00258756 218.773441 63.10155 281.872404 140.940097 281.872404 C 218.773435 281.872404 281.872398 218.773441 281.872398 140.940103 C 281.872398 63.101556 218.773435 0.00259356 140.940097 0.00259356 Z M 140.940097 0.00259356 " stroke="#292632" stroke-width="8" stroke-opacity="1" stroke-miterlimit="4"/></g></g><g clip-path="url(#8edffd786a)"><path fill="#f5f5f5" d="M 37.5 140.722656 L 337.335938 140.722656 L 337.335938 243.066406 L 37.5 243.066406 Z M 37.5 140.722656 " fill-opacity="1" fill-rule="nonzero"/></g><g fill="#ff6600" fill-opacity="1"><g transform="translate(102.013807, 202.747421)"><g><path d="M 42.640625 -23.828125 L 28.953125 -23.828125 L 28.953125 -4.53125 C 28.953125 -2.757812 28.484375 -1.46875 27.546875 -0.65625 C 26.617188 0.144531 25.195312 0.546875 23.28125 0.546875 C 21.332031 0.546875 19.894531 0.144531 18.96875 -0.65625 C 18.050781 -1.46875 17.59375 -2.757812 17.59375 -4.53125 L 17.59375 -23.828125 L 12.1875 -23.828125 L 12.1875 -26.875 L 17.59375 -26.875 L 17.59375 -48.671875 C 16.851562 -48.597656 16.003906 -48.460938 15.046875 -48.265625 C 14.085938 -48.066406 13.101562 -47.789062 12.09375 -47.4375 C 11.09375 -47.082031 10.109375 -46.660156 9.140625 -46.171875 C 8.171875 -45.679688 7.304688 -45.113281 6.546875 -44.46875 C 5.785156 -43.820312 5.164062 -43.097656 4.6875 -42.296875 C 4.21875 -41.503906 3.984375 -40.648438 3.984375 -39.734375 C 3.984375 -38.992188 4.082031 -38.398438 4.28125 -37.953125 C 4.476562 -37.515625 4.703125 -37.1875 4.953125 -36.96875 C 5.203125 -36.75 5.457031 -36.609375 5.71875 -36.546875 C 5.988281 -36.492188 6.179688 -36.46875 6.296875 -36.46875 C 6.878906 -36.46875 7.351562 -36.566406 7.71875 -36.765625 C 8.09375 -36.960938 8.425781 -37.171875 8.71875 -37.390625 C 9.019531 -37.609375 9.300781 -37.816406 9.5625 -38.015625 C 9.832031 -38.210938 10.144531 -38.3125 10.5 -38.3125 C 10.769531 -38.3125 11.0625 -38.242188 11.375 -38.109375 C 11.6875 -37.984375 11.972656 -37.78125 12.234375 -37.5 C 12.503906 -37.226562 12.734375 -36.867188 12.921875 -36.421875 C 13.109375 -35.972656 13.203125 -35.425781 13.203125 -34.78125 C 13.203125 -33.851562 13.019531 -33.046875 12.65625 -32.359375 C 12.300781 -31.679688 11.835938 -31.125 11.265625 -30.6875 C 10.703125 -30.25 10.054688 -29.921875 9.328125 -29.703125 C 8.609375 -29.484375 7.890625 -29.375 7.171875 -29.375 C 6.054688 -29.375 5.054688 -29.5625 4.171875 -29.9375 C 3.285156 -30.320312 2.53125 -30.847656 1.90625 -31.515625 C 1.28125 -32.191406 0.804688 -32.972656 0.484375 -33.859375 C 0.160156 -34.742188 0 -35.707031 0 -36.75 C 0 -39.445312 0.742188 -41.742188 2.234375 -43.640625 C 3.722656 -45.535156 5.757812 -47.085938 8.34375 -48.296875 C 10.9375 -49.515625 13.953125 -50.398438 17.390625 -50.953125 C 20.828125 -51.503906 24.507812 -51.78125 28.4375 -51.78125 C 30.03125 -51.78125 31.691406 -51.757812 33.421875 -51.71875 C 35.148438 -51.6875 36.78125 -51.632812 38.3125 -51.5625 C 39.851562 -51.5 41.210938 -51.421875 42.390625 -51.328125 C 43.566406 -51.234375 44.398438 -51.128906 44.890625 -51.015625 C 45.347656 -50.898438 45.71875 -50.773438 46 -50.640625 C 46.28125 -50.503906 46.488281 -50.34375 46.625 -50.15625 C 46.757812 -49.96875 46.847656 -49.753906 46.890625 -49.515625 C 46.941406 -49.273438 46.96875 -48.992188 46.96875 -48.671875 C 46.96875 -48.390625 46.929688 -48.082031 46.859375 -47.75 C 46.796875 -47.414062 46.691406 -47.101562 46.546875 -46.8125 C 46.410156 -46.519531 46.238281 -46.269531 46.03125 -46.0625 C 45.820312 -45.851562 45.566406 -45.75 45.265625 -45.75 C 45.085938 -45.75 44.890625 -45.828125 44.671875 -45.984375 C 44.453125 -46.148438 44.140625 -46.359375 43.734375 -46.609375 C 43.328125 -46.867188 42.78125 -47.132812 42.09375 -47.40625 C 41.414062 -47.6875 40.503906 -47.953125 39.359375 -48.203125 C 38.222656 -48.460938 36.804688 -48.671875 35.109375 -48.828125 C 33.410156 -48.992188 31.359375 -49.078125 28.953125 -49.078125 L 28.953125 -26.875 L 42.640625 -26.875 Z M 42.640625 -23.828125 "/></g></g></g><g fill="#ff6600" fill-opacity="1"><g transform="translate(146.898569, 202.747421)"><g><path d="M 2.109375 -17.734375 C 2.109375 -20.753906 2.546875 -23.398438 3.421875 -25.671875 C 4.304688 -27.953125 5.476562 -29.851562 6.9375 -31.375 C 8.40625 -32.90625 10.109375 -34.050781 12.046875 -34.8125 C 13.992188 -35.570312 16.03125 -35.953125 18.15625 -35.953125 C 20.28125 -35.953125 22.3125 -35.597656 24.25 -34.890625 C 26.1875 -34.191406 27.890625 -33.113281 29.359375 -31.65625 C 30.828125 -30.195312 32 -28.351562 32.875 -26.125 C 33.75 -23.90625 34.1875 -21.269531 34.1875 -18.21875 C 34.1875 -15.195312 33.75 -12.519531 32.875 -10.1875 C 32 -7.851562 30.828125 -5.890625 29.359375 -4.296875 C 27.890625 -2.703125 26.1875 -1.492188 24.25 -0.671875 C 22.3125 0.140625 20.28125 0.546875 18.15625 0.546875 C 16.03125 0.546875 13.992188 0.160156 12.046875 -0.609375 C 10.109375 -1.378906 8.40625 -2.523438 6.9375 -4.046875 C 5.476562 -5.578125 4.304688 -7.484375 3.421875 -9.765625 C 2.546875 -12.054688 2.109375 -14.710938 2.109375 -17.734375 Z M 23.421875 -18.078125 C 23.421875 -19.929688 23.351562 -21.71875 23.21875 -23.4375 C 23.09375 -25.15625 22.84375 -26.679688 22.46875 -28.015625 C 22.101562 -29.359375 21.570312 -30.425781 20.875 -31.21875 C 20.1875 -32.019531 19.28125 -32.421875 18.15625 -32.421875 C 17.019531 -32.421875 16.101562 -32 15.40625 -31.15625 C 14.71875 -30.3125 14.1875 -29.203125 13.8125 -27.828125 C 13.445312 -26.453125 13.207031 -24.882812 13.09375 -23.125 C 12.976562 -21.375 12.921875 -19.578125 12.921875 -17.734375 C 12.921875 -15.890625 12.976562 -14.082031 13.09375 -12.3125 C 13.207031 -10.539062 13.445312 -8.960938 13.8125 -7.578125 C 14.1875 -6.191406 14.71875 -5.078125 15.40625 -4.234375 C 16.101562 -3.398438 17.019531 -2.984375 18.15625 -2.984375 C 19.28125 -2.984375 20.1875 -3.421875 20.875 -4.296875 C 21.570312 -5.171875 22.101562 -6.320312 22.46875 -7.75 C 22.84375 -9.1875 23.09375 -10.804688 23.21875 -12.609375 C 23.351562 -14.410156 23.421875 -16.234375 23.421875 -18.078125 Z M 23.421875 -18.078125 "/></g></g></g><g fill="#ff6600" fill-opacity="1"><g transform="translate(183.228912, 202.747421)"><g><path d="M 2.109375 -17.734375 C 2.109375 -20.753906 2.546875 -23.398438 3.421875 -25.671875 C 4.304688 -27.953125 5.476562 -29.851562 6.9375 -31.375 C 8.40625 -32.90625 10.109375 -34.050781 12.046875 -34.8125 C 13.992188 -35.570312 16.03125 -35.953125 18.15625 -35.953125 C 20.28125 -35.953125 22.3125 -35.597656 24.25 -34.890625 C 26.1875 -34.191406 27.890625 -33.113281 29.359375 -31.65625 C 30.828125 -30.195312 32 -28.351562 32.875 -26.125 C 33.75 -23.90625 34.1875 -21.269531 34.1875 -18.21875 C 34.1875 -15.195312 33.75 -12.519531 32.875 -10.1875 C 32 -7.851562 30.828125 -5.890625 29.359375 -4.296875 C 27.890625 -2.703125 26.1875 -1.492188 24.25 -0.671875 C 22.3125 0.140625 20.28125 0.546875 18.15625 0.546875 C 16.03125 0.546875 13.992188 0.160156 12.046875 -0.609375 C 10.109375 -1.378906 8.40625 -2.523438 6.9375 -4.046875 C 5.476562 -5.578125 4.304688 -7.484375 3.421875 -9.765625 C 2.546875 -12.054688 2.109375 -14.710938 2.109375 -17.734375 Z M 23.421875 -18.078125 C 23.421875 -19.929688 23.351562 -21.71875 23.21875 -23.4375 C 23.09375 -25.15625 22.84375 -26.679688 22.46875 -28.015625 C 22.101562 -29.359375 21.570312 -30.425781 20.875 -31.21875 C 20.1875 -32.019531 19.28125 -32.421875 18.15625 -32.421875 C 17.019531 -32.421875 16.101562 -32 15.40625 -31.15625 C 14.71875 -30.3125 14.1875 -29.203125 13.8125 -27.828125 C 13.445312 -26.453125 13.207031 -24.882812 13.09375 -23.125 C 12.976562 -21.375 12.921875 -19.578125 12.921875 -17.734375 C 12.921875 -15.890625 12.976562 -14.082031 13.09375 -12.3125 C 13.207031 -10.539062 13.445312 -8.960938 13.8125 -7.578125 C 14.1875 -6.191406 14.71875 -5.078125 15.40625 -4.234375 C 16.101562 -3.398438 17.019531 -2.984375 18.15625 -2.984375 C 19.28125 -2.984375 20.1875 -3.421875 20.875 -4.296875 C 21.570312 -5.171875 22.101562 -6.320312 22.46875 -7.75 C 22.84375 -9.1875 23.09375 -10.804688 23.21875 -12.609375 C 23.351562 -14.410156 23.421875 -16.234375 23.421875 -18.078125 Z M 23.421875 -18.078125 "/></g></g></g><g fill="#ff6600" fill-opacity="1"><g transform="translate(219.559254, 202.747421)"><g><path d="M 23.546875 -18.8125 C 23.546875 -19.0625 23.546875 -19.570312 23.546875 -20.34375 C 23.546875 -21.125 23.523438 -22.015625 23.484375 -23.015625 C 23.441406 -24.015625 23.359375 -25.082031 23.234375 -26.21875 C 23.117188 -27.351562 22.9375 -28.40625 22.6875 -29.375 C 22.132812 -30.09375 21.515625 -30.734375 20.828125 -31.296875 C 20.148438 -31.859375 19.28125 -32.140625 18.21875 -32.140625 C 16.414062 -32.140625 15.09375 -30.960938 14.25 -28.609375 C 13.40625 -26.253906 12.984375 -22.609375 12.984375 -17.671875 C 12.984375 -15.492188 13.082031 -13.503906 13.28125 -11.703125 C 13.476562 -9.898438 13.78125 -8.351562 14.1875 -7.0625 C 14.59375 -5.769531 15.109375 -4.765625 15.734375 -4.046875 C 16.367188 -3.335938 17.128906 -2.984375 18.015625 -2.984375 C 21.703125 -2.984375 23.546875 -8.257812 23.546875 -18.8125 Z M 23.140625 -34.046875 C 22.703125 -36.359375 22.085938 -38.507812 21.296875 -40.5 C 20.515625 -42.5 19.570312 -44.226562 18.46875 -45.6875 C 17.375 -47.144531 16.128906 -48.285156 14.734375 -49.109375 C 13.335938 -49.941406 11.832031 -50.359375 10.21875 -50.359375 C 9.289062 -50.359375 8.453125 -50.242188 7.703125 -50.015625 C 6.953125 -49.785156 6.300781 -49.515625 5.75 -49.203125 C 5.195312 -48.890625 4.738281 -48.585938 4.375 -48.296875 C 4.019531 -48.015625 3.765625 -47.800781 3.609375 -47.65625 L 2.703125 -48.875 C 3.253906 -49.59375 3.925781 -50.257812 4.71875 -50.875 C 5.519531 -51.5 6.394531 -52.03125 7.34375 -52.46875 C 8.289062 -52.914062 9.289062 -53.265625 10.34375 -53.515625 C 11.394531 -53.765625 12.4375 -53.890625 13.46875 -53.890625 C 16.882812 -53.890625 19.882812 -53.144531 22.46875 -51.65625 C 25.0625 -50.164062 27.222656 -48.054688 28.953125 -45.328125 C 30.691406 -42.609375 32 -39.320312 32.875 -35.46875 C 33.75 -31.613281 34.1875 -27.332031 34.1875 -22.625 C 34.1875 -18.8125 33.796875 -15.460938 33.015625 -12.578125 C 32.242188 -9.691406 31.144531 -7.269531 29.71875 -5.3125 C 28.289062 -3.363281 26.550781 -1.898438 24.5 -0.921875 C 22.457031 0.0546875 20.15625 0.546875 17.59375 0.546875 C 15.8125 0.546875 14.003906 0.234375 12.171875 -0.390625 C 10.335938 -1.023438 8.675781 -2.054688 7.1875 -3.484375 C 5.695312 -4.921875 4.476562 -6.800781 3.53125 -9.125 C 2.582031 -11.445312 2.109375 -14.296875 2.109375 -17.671875 C 2.109375 -20.578125 2.519531 -23.160156 3.34375 -25.421875 C 4.164062 -27.679688 5.269531 -29.59375 6.65625 -31.15625 C 8.039062 -32.71875 9.644531 -33.90625 11.46875 -34.71875 C 13.289062 -35.539062 15.21875 -35.953125 17.25 -35.953125 C 18.03125 -35.953125 18.734375 -35.890625 19.359375 -35.765625 C 19.984375 -35.640625 20.523438 -35.484375 20.984375 -35.296875 C 21.453125 -35.109375 21.859375 -34.90625 22.203125 -34.6875 C 22.546875 -34.46875 22.859375 -34.253906 23.140625 -34.046875 Z M 23.140625 -34.046875 "/></g></g></g><path fill="#292632" d="M 47.40625 242.40625 C 63.320312 234.175781 81.886719 232.28125 99.53125 231.851562 C 118.53125 231.363281 137.476562 232.609375 156.367188 234.339844 C 175.476562 236.125 194.53125 238.34375 213.691406 239.699219 C 223.21875 240.347656 232.800781 240.726562 242.378906 240.78125 C 251.367188 240.835938 260.460938 240.890625 269.445312 239.808594 C 278.484375 238.722656 287.523438 236.179688 294.453125 229.957031 C 300.515625 224.488281 304.898438 216.152344 303.222656 207.871094 C 302.519531 204.40625 297.105469 205.21875 297.105469 208.683594 C 297.160156 216.042969 294.289062 222.269531 288.605469 226.925781 C 282.21875 232.175781 273.667969 234.015625 265.710938 234.988281 C 247.628906 237.101562 229.226562 236.398438 211.09375 235.152344 C 174.285156 232.554688 137.585938 226.546875 100.613281 227.84375 C 81.777344 228.441406 62.722656 230.605469 46.324219 240.566406 C 45.132812 241.269531 46.160156 243.054688 47.40625 242.40625 Z M 47.40625 242.40625 " fill-opacity="1" fill-rule="nonzero"/><path fill="#292632" d="M 54.550781 230.386719 C 70.679688 224.488281 87.351562 223.082031 104.402344 222.972656 C 105.324219 222.972656 105.648438 221.402344 104.621094 221.292969 C 87.570312 218.75 69.816406 222.808594 54.171875 229.683594 C 53.847656 229.847656 54.117188 230.550781 54.550781 230.386719 Z M 54.550781 230.386719 " fill-opacity="1" fill-rule="nonzero"/><path fill="#292632" d="M 288.121094 239.859375 C 294.34375 238.996094 300.082031 236.019531 304.414062 231.523438 C 306.632812 229.25 308.527344 226.652344 309.824219 223.785156 C 310.90625 221.511719 312.910156 217.453125 311.285156 215.125 C 310.527344 214.042969 309.230469 213.878906 308.253906 214.746094 C 306.414062 216.316406 306.6875 219.886719 305.929688 222.160156 C 305.0625 224.757812 303.816406 227.195312 302.246094 229.414062 C 298.730469 234.230469 293.695312 237.75 287.957031 239.320312 C 287.578125 239.375 287.742188 239.914062 288.121094 239.859375 Z M 288.121094 239.859375 " fill-opacity="1" fill-rule="nonzero"/><g clip-path="url(#09e4260f98)"><path fill="#292632" d="M 187.5 243.066406 L 191.207031 250.582031 L 199.503906 251.785156 L 193.5 257.636719 L 194.917969 265.898438 L 187.5 261.996094 L 180.078125 265.898438 L 181.496094 257.636719 L 175.496094 251.785156 L 183.789062 250.582031 Z M 187.5 243.066406 " fill-opacity="1" fill-rule="nonzero"/></g><g clip-path="url(#01aaf861d1)"><path fill="#292632" d="M 212.867188 253.042969 L 214.863281 259.21875 L 221.082031 261.074219 L 215.828125 264.878906 L 215.988281 271.367188 L 210.742188 267.546875 L 204.621094 269.703125 L 206.632812 263.53125 L 202.691406 258.375 L 209.183594 258.382812 Z M 212.867188 253.042969 " fill-opacity="1" fill-rule="nonzero"/></g><g clip-path="url(#4e8334be27)"><path fill="#292632" d="M 162.128906 253.042969 L 160.132812 259.21875 L 153.914062 261.074219 L 159.167969 264.878906 L 159.011719 271.367188 L 164.257812 267.546875 L 170.378906 269.703125 L 168.363281 263.53125 L 172.304688 258.375 L 165.816406 258.382812 Z M 162.128906 253.042969 " fill-opacity="1" fill-rule="nonzero"/></g><g clip-path="url(#428c59fc28)"><path fill="#ff6600" d="M 152.050781 123.753906 C 150.296875 123.886719 146.015625 124.476562 142.71875 127.125 C 140.253906 129.109375 138.289062 132.199219 138.273438 137.050781 C 138.257812 141.757812 140.355469 144.710938 142.96875 146.582031 C 145.921875 148.703125 149.609375 149.34375 151.539062 149.535156 C 151.921875 150.835938 152.183594 152.472656 152.289062 154.25 C 152.40625 156.183594 152.335938 158.28125 152.003906 160.308594 L 151.449219 163.675781 L 154.554688 162.261719 C 157.933594 160.707031 164.246094 159.421875 170.875 159.496094 C 172.539062 159.515625 174.21875 159.632812 175.894531 159.804688 C 177.011719 159.921875 178.117188 160.042969 179.222656 160.214844 C 180.640625 160.433594 182.007812 160.691406 183.375 161.054688 C 184.8125 161.4375 186.164062 161.832031 187.503906 162.445312 C 186.476562 161.410156 185.402344 160.503906 184.160156 159.699219 C 182.933594 158.90625 181.625 158.285156 180.242188 157.742188 C 179.15625 157.3125 178.035156 156.980469 176.886719 156.710938 C 176.128906 156.53125 175.359375 156.40625 174.589844 156.300781 C 171.65625 155.90625 168.691406 155.902344 165.894531 156.09375 C 162.117188 156.355469 158.644531 157.039062 155.933594 157.878906 C 156.011719 156.566406 156.007812 155.269531 155.933594 154.027344 C 155.761719 151.265625 155.238281 148.792969 154.535156 147.105469 L 154.070312 145.984375 L 152.855469 145.984375 C 152.855469 145.984375 148.378906 146.007812 145.058594 143.648438 C 143.246094 142.363281 141.828125 140.308594 141.816406 137.050781 C 141.804688 133.546875 143.140625 131.277344 144.914062 129.832031 C 147.363281 127.832031 150.535156 127.304688 152.019531 127.167969 C 152.0625 127.65625 152.125 128.144531 152.207031 128.621094 C 152.863281 132.445312 154.703125 135.699219 157.355469 137.3125 C 155.203125 135.367188 154.128906 132.078125 154.09375 128.449219 C 154.066406 125.488281 154.8125 122.34375 156.410156 119.542969 C 157.277344 118.027344 158.417969 116.652344 159.824219 115.449219 C 162.554688 113.121094 166.371094 111.574219 171.542969 111.632812 C 177.144531 111.671875 180.886719 113.367188 183.367188 115.679688 C 188.25 120.234375 188.253906 127.007812 188.253906 127.007812 L 188.253906 129.25 L 190.480469 128.984375 C 190.480469 128.984375 196.328125 128.246094 200.75 130.667969 C 203.214844 132.019531 205.160156 134.453125 205.179688 138.726562 C 205.210938 142.8125 203.75 145.171875 201.734375 146.46875 C 200.074219 147.53125 198.117188 147.898438 196.460938 148.058594 C 194.878906 148.207031 193.546875 148.160156 192.933594 148.121094 C 193.023438 147.996094 193.109375 147.863281 193.191406 147.734375 C 193.628906 147.019531 193.972656 146.253906 194.199219 145.429688 C 194.363281 144.832031 194.480469 144.234375 194.511719 143.597656 C 194.578125 142.25 194.375 140.925781 193.863281 139.5 C 193.8125 140.300781 193.671875 141.003906 193.492188 141.722656 C 193.222656 142.804688 192.777344 143.730469 192.257812 144.632812 C 191.917969 145.222656 191.519531 145.753906 191.105469 146.277344 C 190.835938 146.625 190.546875 146.957031 190.257812 147.292969 C 189.519531 148.15625 188.730469 148.960938 187.800781 149.625 C 186.300781 150.691406 184.671875 151.496094 182.824219 151.800781 C 184.824219 152.128906 186.804688 151.945312 188.667969 151.261719 C 189.328125 151.019531 189.949219 150.703125 190.535156 150.332031 C 190.265625 151.546875 190.128906 152.804688 190.152344 154.109375 C 190.191406 156.480469 190.648438 158.886719 191.210938 161.390625 C 191.351562 158.90625 191.625 156.558594 192.140625 154.316406 C 192.386719 153.25 192.699219 152.242188 193.113281 151.285156 C 193.960938 151.421875 195.222656 151.566406 196.671875 151.53125 C 198.871094 151.46875 201.453125 150.925781 203.675781 149.566406 C 206.59375 147.78125 208.964844 144.550781 209.007812 138.726562 C 209.03125 134.015625 207.296875 130.898438 204.914062 128.808594 C 201.019531 125.394531 195.140625 124.925781 192.058594 124.941406 C 191.660156 122.054688 190.351562 116.734375 186.082031 112.765625 C 183.023438 109.925781 178.449219 107.726562 171.558594 107.710938 C 166.292969 107.714844 162.164062 109.078125 159.078125 111.265625 C 158.074219 111.976562 157.175781 112.765625 156.394531 113.636719 C 155.183594 114.992188 154.222656 116.496094 153.527344 118.097656 C 152.734375 119.921875 152.246094 121.84375 152.050781 123.753906 Z M 152.050781 123.753906 " fill-opacity="1" fill-rule="evenodd"/></g><g clip-path="url(#d03a6f8b49)"><path fill="#292632" d="M 277.976562 217.585938 C 277.84375 217.945312 277.5 218.214844 277.078125 218.242188 C 276.960938 218.242188 267.988281 218.839844 259.109375 223.101562 C 258.242188 223.519531 257.628906 224.296875 257.328125 225.210938 C 256.878906 226.601562 255.355469 227.5 253.664062 228.457031 C 250.316406 230.367188 248.523438 230.546875 247.328125 230.292969 C 247.070312 230.234375 253.351562 226.871094 253.066406 226.375 C 252.796875 225.898438 248.941406 228.082031 247.160156 229.203125 C 246.726562 229.472656 246.160156 229.261719 245.996094 228.785156 C 245.875 228.425781 246.027344 228.023438 246.371094 227.84375 C 248 226.945312 252.15625 224.792969 251.886719 224.121094 C 251.617188 223.460938 245.816406 227.019531 245.816406 227.019531 C 245.816406 227.019531 245.382812 225.882812 247.25 224.6875 C 250.390625 222.683594 253.351562 220.515625 255.042969 221.160156 C 255.910156 221.488281 257.703125 221.621094 258.464844 221.097656 C 268.40625 214.222656 278.367188 214.476562 278.023438 217.167969 C 278.023438 217.300781 278.023438 217.449219 277.976562 217.585938 Z M 251.09375 218.992188 C 249.195312 219.320312 247.402344 219.109375 246.070312 218.527344 C 245.1875 218.136719 244.203125 218.078125 243.320312 218.453125 C 234.214844 222.265625 227.816406 228.589844 227.726562 228.679688 C 227.425781 228.976562 227.007812 229.054688 226.632812 228.917969 C 226.5 228.875 226.347656 228.800781 226.257812 228.679688 C 224.167969 225.882812 231.460938 220.128906 242.109375 216.703125 C 243.035156 216.402344 243.664062 215.582031 244.007812 214.683594 C 244.664062 213.011719 246.894531 211.5 249.71875 211.023438 C 253.335938 210.410156 256.582031 211.695312 256.957031 213.890625 C 257.34375 216.089844 254.710938 218.378906 251.09375 218.992188 Z M 255.132812 213.59375 C 254.5625 214.25 253.949219 214.804688 253.277344 215.253906 C 252.605469 215.714844 251.871094 216.03125 251.125 216.253906 C 250.332031 216.464844 249.539062 216.613281 248.730469 216.660156 C 247.925781 216.6875 247.085938 216.660156 246.25 216.449219 C 246.953125 216.972656 247.835938 217.210938 248.71875 217.300781 C 249.597656 217.375 250.496094 217.285156 251.347656 217.046875 C 252.214844 216.808594 253.039062 216.359375 253.695312 215.746094 C 254.339844 215.164062 254.863281 214.429688 255.132812 213.59375 Z M 255.132812 213.59375 " fill-opacity="1" fill-rule="nonzero"/></g><g clip-path="url(#5b28e379ca)"><path fill="#292632" d="M 244.425781 222.445312 C 244.425781 223.117188 243.886719 223.65625 243.214844 223.65625 C 242.542969 223.65625 242.003906 223.117188 242.003906 222.445312 C 242.003906 221.773438 242.542969 221.234375 243.214844 221.234375 C 243.886719 221.234375 244.425781 221.773438 244.425781 222.445312 Z M 261.230469 211.84375 C 260.320312 211.84375 259.585938 212.578125 259.585938 213.488281 C 259.585938 214.402344 260.320312 215.132812 261.230469 215.132812 C 262.144531 215.132812 262.875 214.402344 262.875 213.488281 C 262.875 212.578125 262.128906 211.84375 261.230469 211.84375 Z M 237.890625 209.914062 C 237.277344 209.914062 236.800781 210.410156 236.800781 211.007812 C 236.800781 211.605469 237.292969 212.097656 237.890625 212.097656 C 238.503906 212.097656 238.984375 211.605469 238.984375 211.007812 C 238.984375 210.410156 238.488281 209.914062 237.890625 209.914062 Z M 256.28125 205.804688 C 255.832031 205.804688 255.460938 206.175781 255.460938 206.625 C 255.460938 207.074219 255.832031 207.449219 256.28125 207.449219 C 256.730469 207.449219 257.105469 207.074219 257.105469 206.625 C 257.105469 206.175781 256.730469 205.804688 256.28125 205.804688 Z M 238.429688 226.945312 C 238.132812 226.945312 237.878906 227.183594 237.878906 227.5 C 237.878906 227.796875 238.117188 228.050781 238.429688 228.050781 C 238.730469 228.050781 238.984375 227.8125 238.984375 227.5 C 238.984375 227.183594 238.746094 226.945312 238.429688 226.945312 Z M 238.429688 226.945312 " fill-opacity="1" fill-rule="nonzero"/></g><g fill="#ff6600" fill-opacity="1"><g transform="translate(111.732624, 218.766343)"><g><path d="M 1.0625 -8.765625 L 4.53125 -8.765625 C 5.320312 -8.765625 5.953125 -8.625 6.421875 -8.34375 C 6.890625 -8.070312 7.226562 -7.707031 7.4375 -7.25 C 7.644531 -6.800781 7.75 -6.320312 7.75 -5.8125 C 7.75 -5.070312 7.597656 -4.472656 7.296875 -4.015625 C 6.992188 -3.554688 6.570312 -3.21875 6.03125 -3 C 5.5 -2.789062 4.882812 -2.6875 4.1875 -2.6875 L 2.125 -2.6875 L 2.125 0 L 1.0625 0 Z M 2.125 -3.5625 L 4.109375 -3.5625 C 4.890625 -3.5625 5.503906 -3.742188 5.953125 -4.109375 C 6.398438 -4.472656 6.625 -5.019531 6.625 -5.75 C 6.625 -6.113281 6.550781 -6.457031 6.40625 -6.78125 C 6.269531 -7.101562 6.035156 -7.363281 5.703125 -7.5625 C 5.378906 -7.757812 4.9375 -7.859375 4.375 -7.859375 L 2.125 -7.859375 Z M 2.125 -3.5625 "/></g></g></g><g fill="#ff6600" fill-opacity="1"><g transform="translate(122.699679, 218.766343)"><g><path d="M 7.375 -6.734375 L 7.375 0 L 6.34375 0 L 6.34375 -0.671875 C 6.039062 -0.441406 5.691406 -0.257812 5.296875 -0.125 C 4.898438 0.0078125 4.46875 0.078125 4 0.078125 C 3.332031 0.078125 2.738281 -0.0820312 2.21875 -0.40625 C 1.707031 -0.726562 1.304688 -1.148438 1.015625 -1.671875 C 0.722656 -2.203125 0.578125 -2.773438 0.578125 -3.390625 C 0.578125 -4.003906 0.722656 -4.570312 1.015625 -5.09375 C 1.304688 -5.625 1.707031 -6.050781 2.21875 -6.375 C 2.738281 -6.695312 3.332031 -6.859375 4 -6.859375 C 4.445312 -6.859375 4.875 -6.789062 5.28125 -6.65625 C 5.6875 -6.519531 6.039062 -6.335938 6.34375 -6.109375 L 6.34375 -6.734375 Z M 6.34375 -1.625 L 6.34375 -5.125 C 6.070312 -5.382812 5.75 -5.582031 5.375 -5.71875 C 5.007812 -5.863281 4.609375 -5.9375 4.171875 -5.9375 C 3.671875 -5.9375 3.222656 -5.816406 2.828125 -5.578125 C 2.441406 -5.347656 2.132812 -5.039062 1.90625 -4.65625 C 1.6875 -4.28125 1.578125 -3.859375 1.578125 -3.390625 C 1.578125 -2.941406 1.6875 -2.519531 1.90625 -2.125 C 2.132812 -1.738281 2.445312 -1.425781 2.84375 -1.1875 C 3.238281 -0.957031 3.679688 -0.84375 4.171875 -0.84375 C 4.617188 -0.84375 5.023438 -0.910156 5.390625 -1.046875 C 5.765625 -1.191406 6.082031 -1.382812 6.34375 -1.625 Z M 6.34375 -1.625 "/></g></g></g><g fill="#ff6600" fill-opacity="1"><g transform="translate(133.778646, 218.766343)"><g><path d="M 4.234375 -6.859375 C 5.128906 -6.859375 5.832031 -6.609375 6.34375 -6.109375 C 6.851562 -5.617188 7.109375 -4.851562 7.109375 -3.8125 L 7.109375 0 L 6.078125 0 L 6.078125 -3.8125 C 6.078125 -4.507812 5.890625 -5.035156 5.515625 -5.390625 C 5.148438 -5.753906 4.664062 -5.9375 4.0625 -5.9375 C 3.625 -5.9375 3.234375 -5.867188 2.890625 -5.734375 C 2.546875 -5.597656 2.242188 -5.410156 1.984375 -5.171875 L 1.984375 0 L 0.9375 0 L 0.9375 -6.734375 L 1.984375 -6.734375 L 1.984375 -6.078125 C 2.554688 -6.597656 3.304688 -6.859375 4.234375 -6.859375 Z M 4.234375 -6.859375 "/></g></g></g><g fill="#ff6600" fill-opacity="1"><g transform="translate(144.472165, 218.766343)"><g><path d="M 7.390625 -9.375 L 7.390625 0 L 6.375 0 L 6.375 -0.640625 C 6.070312 -0.421875 5.710938 -0.242188 5.296875 -0.109375 C 4.890625 0.015625 4.46875 0.078125 4.03125 0.078125 C 3.394531 0.078125 2.8125 -0.0703125 2.28125 -0.375 C 1.757812 -0.675781 1.34375 -1.085938 1.03125 -1.609375 C 0.71875 -2.128906 0.5625 -2.722656 0.5625 -3.390625 C 0.5625 -4.054688 0.71875 -4.648438 1.03125 -5.171875 C 1.34375 -5.691406 1.757812 -6.101562 2.28125 -6.40625 C 2.8125 -6.707031 3.394531 -6.859375 4.03125 -6.859375 C 4.488281 -6.859375 4.914062 -6.789062 5.3125 -6.65625 C 5.707031 -6.53125 6.0625 -6.359375 6.375 -6.140625 L 6.375 -9.375 Z M 4.171875 -0.84375 C 4.617188 -0.84375 5.03125 -0.910156 5.40625 -1.046875 C 5.78125 -1.191406 6.101562 -1.394531 6.375 -1.65625 L 6.375 -5.15625 C 6.113281 -5.394531 5.789062 -5.582031 5.40625 -5.71875 C 5.03125 -5.863281 4.617188 -5.9375 4.171875 -5.9375 C 3.691406 -5.9375 3.253906 -5.820312 2.859375 -5.59375 C 2.472656 -5.363281 2.164062 -5.054688 1.9375 -4.671875 C 1.707031 -4.296875 1.59375 -3.867188 1.59375 -3.390625 C 1.59375 -2.898438 1.707031 -2.460938 1.9375 -2.078125 C 2.164062 -1.703125 2.472656 -1.398438 2.859375 -1.171875 C 3.253906 -0.953125 3.691406 -0.84375 4.171875 -0.84375 Z M 4.171875 -0.84375 "/></g></g></g><g fill="#ff6600" fill-opacity="1"><g transform="translate(155.563561, 218.766343)"><g><path d="M 7.375 -6.734375 L 7.375 0 L 6.34375 0 L 6.34375 -0.671875 C 6.039062 -0.441406 5.691406 -0.257812 5.296875 -0.125 C 4.898438 0.0078125 4.46875 0.078125 4 0.078125 C 3.332031 0.078125 2.738281 -0.0820312 2.21875 -0.40625 C 1.707031 -0.726562 1.304688 -1.148438 1.015625 -1.671875 C 0.722656 -2.203125 0.578125 -2.773438 0.578125 -3.390625 C 0.578125 -4.003906 0.722656 -4.570312 1.015625 -5.09375 C 1.304688 -5.625 1.707031 -6.050781 2.21875 -6.375 C 2.738281 -6.695312 3.332031 -6.859375 4 -6.859375 C 4.445312 -6.859375 4.875 -6.789062 5.28125 -6.65625 C 5.6875 -6.519531 6.039062 -6.335938 6.34375 -6.109375 L 6.34375 -6.734375 Z M 6.34375 -1.625 L 6.34375 -5.125 C 6.070312 -5.382812 5.75 -5.582031 5.375 -5.71875 C 5.007812 -5.863281 4.609375 -5.9375 4.171875 -5.9375 C 3.671875 -5.9375 3.222656 -5.816406 2.828125 -5.578125 C 2.441406 -5.347656 2.132812 -5.039062 1.90625 -4.65625 C 1.6875 -4.28125 1.578125 -3.859375 1.578125 -3.390625 C 1.578125 -2.941406 1.6875 -2.519531 1.90625 -2.125 C 2.132812 -1.738281 2.445312 -1.425781 2.84375 -1.1875 C 3.238281 -0.957031 3.679688 -0.84375 4.171875 -0.84375 C 4.617188 -0.84375 5.023438 -0.910156 5.390625 -1.046875 C 5.765625 -1.191406 6.082031 -1.382812 6.34375 -1.625 Z M 6.34375 -1.625 "/></g></g></g></svg>